Coordinates
version=1
nRows=11
nColumns=40
inDegrees=yes

Units are S.I. units (second, meters, Newtons, ...)
Angles are in degrees.

endheader
time	pelvis_tilt	pelvis_list	pelvis_rotation	pelvis_tx	pelvis_ty	pelvis_tz	hip_flexion_r	hip_adduction_r	hip_rotation_r	knee_angle_r	knee_angle_r_beta	ankle_angle_r	subtalar_angle_r	mtp_angle_r	hip_flexion_l	hip_adduction_l	hip_rotation_l	knee_angle_l	knee_angle_l_beta	ankle_angle_l	subtalar_angle_l	mtp_angle_l	lumbar_extension	lumbar_bending	lumbar_rotation	arm_flex_r	arm_add_r	arm_rot_r	elbow_flex_r	pro_sup_r	wrist_flex_r	wrist_dev_r	arm_flex_l	arm_add_l	arm_rot_l	elbow_flex_l	pro_sup_l	wrist_flex_l	wrist_dev_l
     34.25000000	     -4.77793900	     -5.39503326	     -0.93242596	      1.05791327	      0.92343050	      0.53440475	     16.71887023	      5.04027953	     -5.92649680	     22.55175959	     22.55175959	     12.64132440	     -2.60739309	     -3.10672116	     10.47578479	    -17.26881851	     -5.71330488	     41.32538638	     41.32538638	      5.61349136	    -15.71434786	    -14.85670021	     -9.82012738	      5.14097904	      0.34178923	     -7.09581912	    -15.07174009	     -1.80195105	     29.67297799	     46.42811855	      0.00000000	      0.00000000	     17.82159253	    -15.42421941	     -9.39402183	     55.31733899	     46.36877387	      0.00000000	      0.00000000
     34.27357143	     -4.37287399	     -5.36739619	     -0.14704714	      1.05740506	      0.92175672	      0.53792618	     16.73315398	      5.22603654	     -5.90056228	     23.91126113	     23.91126113	     13.38331629	     -4.13023120	     -3.20460109	     14.05117930	    -17.74446407	     -3.51693936	     47.55567843	     47.55567843	      2.93273141	    -17.43736997	    -14.19882864	    -10.14753658	      5.03808030	      0.13242824	     -4.01941367	    -15.08837852	     -1.89767576	     30.42010700	     46.42275928	      0.00000000	      0.00000000	     14.86840851	    -14.28020700	     -8.35008098	     51.95451043	     46.24262198	      0.00000000	      0.00000000
     34.29714286	     -3.91235162	     -5.37211570	      0.67086872	      1.05683177	      0.92000585	      0.54136744	     16.68967861	      5.44985126	     -5.94443516	     25.30311113	     25.30311113	     14.33548208	     -5.52385901	     -2.69392066	     17.61333787	    -17.87625662	     -1.07832133	     53.60833277	     53.60833277	      2.03892240	    -17.92007349	     -8.52633701	    -10.45669687	      4.99977191	      0.47160083	     -0.52630017	    -15.14309117	     -1.69853077	     29.54826735	     46.45052788	      0.00000000	      0.00000000	     13.28330796	    -12.92737010	     -5.99345862	     45.56397814	     46.07019172	      0.00000000	      0.00000000
     34.32071429	     -3.50189064	     -5.48449937	      1.52508102	      1.05627105	      0.91788868	      0.54474771	     16.65898568	      5.77676047	     -6.14712298	     26.59657229	     26.59657229	     15.08465763	     -6.81109906	     -2.87116965	     20.87492408	    -18.04653514	      1.06418141	     58.51549025	     58.51549025	     -0.02464672	    -18.62298230	     -6.72715387	    -10.82140359	      5.04486233	      0.38745598	      2.66971702	    -15.32758427	     -1.87069254	     30.67385356	     46.43912424	      0.00000000	      0.00000000	     10.22493308	    -11.76643945	     -5.16192468	     42.62520118	     45.94895858	      0.00000000	      0.00000000
     34.34428571	     -3.02712829	     -5.24989626	      2.28498327	      1.05564096	      0.91634749	      0.54756008	     16.52231721	      5.76774893	     -6.06383589	     27.86715849	     27.86715849	     16.00714142	     -8.10954492	     -2.16945683	     23.92241493	    -17.20880912	      3.31430043	     63.03584209	     63.03584209	      1.74783619	    -18.52969247	      4.68381015	    -11.12585715	      4.78897239	      0.51764638	      6.83283623	    -15.34735942	     -1.61602127	     29.58437749	     46.48087232	      0.00000000	      0.00000000	      8.93764461	    -10.47829428	     -2.60431048	     35.09563158	     45.70565599	      0.00000000	      0.00000000
     34.36785714	     -2.58976999	     -5.16935142	      3.06608189	      1.05506401	      0.91493528	      0.55024398	     16.27180548	      5.90257174	     -6.18279290	     28.83246095	     28.83246095	     16.76995644	     -9.14508958	     -1.71317750	     26.47475725	    -16.72341213	      4.89874213	     66.02594527	     66.02594527	      2.09746973	    -18.81699858	     10.02526292	    -11.48914338	      4.67040000	      0.63814539	     10.57629949	    -15.43846494	     -1.86011093	     30.02794484	     46.48869590	      0.00000000	      0.00000000	      6.55852282	     -9.42059978	     -0.88905077	     30.96032094	     45.50761517	      0.00000000	      0.00000000
     34.39142857	     -2.27614630	     -5.11186398	      3.86177731	      1.05442615	      0.91370201	      0.55264779	     16.01326861	      6.05389126	     -6.35936175	     29.49478435	     29.49478435	     17.29796680	    -10.13090924	     -1.64974627	     28.72867728	    -16.36547968	      5.95076081	     67.71394360	     67.71394360	      1.98118003	    -19.14158642	     11.66872543	    -11.74158734	      4.56850510	      0.62125897	     14.16896955	    -15.57139926	     -2.11428131	     31.42328913	     46.47122498	      0.00000000	      0.00000000	      3.65359366	     -8.47629830	     -0.10808585	     28.56822068	     45.36357288	      0.00000000	      0.00000000
     34.41500000	     -1.96665277	     -5.01054336	      4.62534813	      1.05367563	      0.91314874	      0.55454664	     15.59655304	      6.12829854	     -6.57889492	     29.85604069	     29.85604069	     17.81671440	    -10.79369596	     -1.16166671	     30.74727943	    -15.78321885	      6.78688499	     68.52498495	     68.52498495	      3.87601871	    -19.26996343	     16.99054879	    -11.97647958	      4.44207466	      1.11386532	     18.02492244	    -15.87690861	     -2.35082914	     31.55707673	     46.48763286	      0.00000000	      0.00000000	      1.45102337	     -7.66034359	      1.95501429	     25.59911868	     45.03529481	      0.00000000	      0.00000000
     34.43857143	     -1.78194290	     -4.95220871	      5.42791600	      1.05283369	      0.91302277	      0.55608470	     15.12426588	      6.21262576	     -6.93196610	     29.81914400	     29.81914400	     18.07225441	    -11.33035097	     -1.03893336	     32.41364979	    -15.40076448	      7.10263409	     67.90975978	     67.90975978	      4.82303532	    -19.40279852	     17.53887000	    -12.11982475	      4.37782745	      1.40031503	     21.60510659	    -16.22310886	     -2.64097527	     33.18957164	     46.46221113	      0.00000000	      0.00000000	     -1.23708115	     -6.97756022	      2.59254654	     24.27828418	     44.88366357	      0.00000000	      0.00000000
     34.46214286	     -1.70076638	     -4.82175656	      6.24165064	      1.05182317	      0.91350336	      0.55712419	     14.58521375	      6.17678924	     -7.33530899	     29.44010446	     29.44010446	     18.21491449	    -11.65414885	     -0.86492773	     33.76997428	    -14.84706069	      7.14190191	     66.13355605	     66.13355605	      6.22937752	    -19.47037129	     18.31313011	    -12.21185114	      4.25230156	      1.70368930	     25.29956084	    -16.62748937	     -2.91998829	     34.81400481	     46.43562625	      0.00000000	      0.00000000	     -3.81838116	     -6.44646421	      3.33392188	     23.27574745	     44.70139995	      0.00000000	      0.00000000
     34.48571429	     -1.81869799	     -4.60702751	      7.06632413	      1.05057517	      0.91433420	      0.55763911	     14.16075760	      5.95376030	     -7.91021442	     28.89158633	     28.89158633	     18.27388976	    -11.68437358	     -0.71585487	     34.91095827	    -14.03950631	      7.02374858	     63.28682350	     63.28682350	      7.94772120	    -19.47020139	     19.76035289	    -12.08426394	      4.08044612	      2.19435398	     29.08307916	    -17.18577101	     -3.33402873	     35.94577778	     46.28056048	      0.00000000	      0.00000000	     -7.30830268	     -7.93213970	     15.73774869	     25.93092993	     42.62234365	      0.00000000	      0.00000000
